# xmcd CD database file
#
# Track frame offsets:
#	150
#	12882
#	24326
#	35629
#	48576
#	61224
#	74262
#	87967
#	100534
#	112653
#	127312
#	136961
#	151694
#	165732
#	180459
#	194578
#	207497
#
# Disc length: 2929 seconds
#
# Revision: 0
# Processed by: cddbd v1.5.2PL0 Copyright (c) Steve Scherf et al.
# Submitted via: CDex 1.51
#
DISCID=e10b6f11
DTITLE=Django Reinhardt - Kind Of Reinhardt [CD1] - Parisienne Vol.1
DYEAR=2009
DGENRE=Jazz
TTITLE0=Dinette (Reinhardt)
TTITLE1=Fleur D' Ennui (Blanche/Reinhardt)
TTITLE2=Belleville (Reinhardt)
TTITLE3=Swingtime In Springtime (Reinhardt)
TTITLE4=Si Tu Savais (Ulmet/Salvet/Antoni)
TTITLE5=Fantaisie (Grappelli/Reinhardt)
TTITLE6=Vendredi (Reinhardt)
TTITLE7=Stockholm (Reinhardt)
TTITLE8=Coucou (Matas/Bertrand)
TTITLE9=Viper's Dream (Allen)
TTITLE10=Oui (Combelle/Gaste)
TTITLE11=Stephen's Blues (Grappelli/Reinhardt)
TTITLE12=Pour Vous (McHugh/Fields)
TTITLE13=Petits Mensonges (Unknown)
TTITLE14=Blues (Reinhardt)
TTITLE15=Speevey (Grappelli/Reinhardt)
TTITLE16=Bouncin' Around (Deloaf)
EXTD=YEAR: 2009
EXTT0=
EXTT1=
EXTT2=
EXTT3=
EXTT4=
EXTT5=
EXTT6=
EXTT7=
EXTT8=
EXTT9=
EXTT10=
EXTT11=
EXTT12=
EXTT13=
EXTT14=
EXTT15=
EXTT16=
PLAYORDER=
